<svg xmlns="http://www.w3.org/2000/svg" width="32" height="32" viewBox="0 0 32 32">
    <g fill="none" fill-rule="evenodd">
        <path fill="#EEF0F5" d="M0 0h32v32H0z"/>
        <path fill="#BABDC7" d="M28.796 32H2.8v-3.5a2.41 2.41 0 0 1 .861-1.856c2.176-1.768 5.534-3.295 8.034-4.553a.22.22 0 0 0 .123-.198l-.293-2.3c-.34-.58-1.278-2.219-1.39-2.884-.261-.022-.603-.392-.973-1.708-.476-1.698-.03-2.035.403-2.032-.23-.99.186-5.436 2.73-7.001-.306-.262-.476-1.192-.477-1.596 0 0 2.787.61 4.182.32 1.395-.29 3.237.974 3.48 2.04 0 0 3.627 1.116 2.523 6.248.443-.018.926.29.44 2.032-.364 1.32-.727 1.69-.974 1.708-.112.665-1.22 2.293-1.56 2.874l-.124 2.31a.22.22 0 0 0 .124.198c2.498 1.255 5.855 2.778 8.03 4.542A2.41 2.41 0 0 1 28.8 28.5L28.796 32z"/>
    </g>
</svg>
